<svg width="42" height="42" viewBox="0 0 42 42" fill="none" xmlns="http://www.w3.org/2000/svg">
<path d="M26.6577 9.604C25.1825 9.5375 24.738 9.5235 21 9.5235C17.262 9.5235 16.8193 9.5375 15.344 9.604C11.5465 9.77725 9.77725 11.5763 9.60575 15.3423C9.5375 16.8193 9.52175 17.262 9.52175 21C9.52175 24.738 9.5375 25.1807 9.604 26.6577C9.77725 30.4167 11.5395 32.2227 15.3423 32.396C16.8175 32.4625 17.262 32.4782 21 32.4782C24.7397 32.4782 25.1825 32.4643 26.6577 32.3978C30.4552 32.2245 32.2227 30.422 32.396 26.6595C32.4625 25.1825 32.4765 24.7397 32.4765 21.0018C32.4765 17.2638 32.4625 16.821 32.396 15.3457C32.2227 11.578 30.4517 9.77725 26.6577 9.604ZM21 28.189C17.0292 28.189 13.811 24.9708 13.811 21C13.811 17.0292 17.031 13.811 21 13.811C24.969 13.811 28.189 17.0292 28.189 21C28.189 24.9708 24.9708 28.189 21 28.189ZM28.4743 15.2075C27.5467 15.2075 26.7943 14.455 26.7943 13.5275C26.7943 12.6 27.5467 11.8475 28.4743 11.8475C29.4018 11.8475 30.1543 12.6 30.1543 13.5275C30.1543 14.455 29.4018 15.2075 28.4743 15.2075ZM25.6672 21C25.6672 23.5777 23.5777 25.6672 21 25.6672C18.4223 25.6672 16.3328 23.5777 16.3328 21C16.3328 18.4223 18.4223 16.3328 21 16.3328C23.5777 16.3328 25.6672 18.4223 25.6672 21ZM33.25 0H8.75C3.91825 0 0 3.91825 0 8.75V33.25C0 38.0817 3.91825 42 8.75 42H33.25C38.0835 42 42 38.0817 42 33.25V8.75C42 3.91825 38.0835 0 33.25 0ZM34.916 26.7715C34.685 31.8623 31.8517 34.6833 26.7733 34.916C25.2787 34.9842 24.8027 35 21 35C17.1973 35 16.723 34.9842 15.2285 34.916C10.1395 34.6833 7.3185 31.857 7.084 26.7715C7.01575 25.2788 7 24.8027 7 21C7 17.199 7.01575 16.7212 7.084 15.2285C7.3185 10.1395 10.143 7.31675 15.2285 7.08575C16.723 7.01575 17.1973 7 21 7C24.8027 7 25.2787 7.01575 26.7733 7.084C31.8622 7.31675 34.6885 10.1483 34.916 15.2268C34.9842 16.7213 35 17.199 35 21C35 24.8027 34.9842 25.2788 34.916 26.7715Z" fill="black"/>
</svg>
