<svg width="24" height="24" viewBox="0 0 24 24" fill="none" xmlns="http://www.w3.org/2000/svg">
<path d="M0.996094 1H3.44054L3.92943 3.44444M5.88498 13.2222H18.1072L22.9961 3.44444H3.92943M5.88498 13.2222L3.92943 3.44444M5.88498 13.2222L3.08256 16.0246C2.3126 16.7946 2.85792 18.1111 3.9468 18.1111H18.1072M18.1072 18.1111C16.7572 18.1111 15.6628 19.2055 15.6628 20.5556C15.6628 21.9056 16.7572 23 18.1072 23C19.4572 23 20.5516 21.9056 20.5516 20.5556C20.5516 19.2055 19.4572 18.1111 18.1072 18.1111ZM8.32943 20.5556C8.32943 21.9056 7.23501 23 5.88498 23C4.53495 23 3.44054 21.9056 3.44054 20.5556C3.44054 19.2055 4.53495 18.1111 5.88498 18.1111C7.23501 18.1111 8.32943 19.2055 8.32943 20.5556Z" stroke="#21272A" stroke-width="2" stroke-linecap="round" stroke-linejoin="round"/>
</svg>
