<svg width="23" height="22" viewBox="0 0 23 22" fill="none" xmlns="http://www.w3.org/2000/svg">
<path d="M15.5492 0H6.65668C4.91911 0.00204195 3.25331 0.69327 2.02476 1.92202C0.796213 3.15078 0.105265 4.8167 0.103516 6.55427V15.4468C0.105558 17.1844 0.796786 18.8502 2.02554 20.0788C3.25429 21.3073 4.92021 21.9982 6.65779 22H15.5503C17.2879 21.998 18.9537 21.3067 20.1823 20.078C21.4108 18.8492 22.1018 17.1833 22.1035 15.4457V6.55317C22.1015 4.8156 21.4102 3.14979 20.1815 1.92124C18.9527 0.692698 17.2868 0.0017498 15.5492 0ZM19.8908 15.4457C19.8908 16.0159 19.7785 16.5804 19.5604 17.1072C19.3422 17.6339 19.0224 18.1125 18.6192 18.5157C18.2161 18.9189 17.7374 19.2387 17.2107 19.4568C16.684 19.675 16.1194 19.7873 15.5492 19.7873H6.65668C5.50541 19.787 4.40139 19.3295 3.58742 18.5153C2.77345 17.7011 2.31619 16.597 2.31619 15.4457V6.55317C2.31648 5.4019 2.77403 4.29788 3.5882 3.48391C4.40238 2.66994 5.50651 2.21267 6.65779 2.21267H15.5503C16.7016 2.21296 17.8056 2.67051 18.6196 3.48469C19.4336 4.29886 19.8908 5.403 19.8908 6.55427V15.4457Z" fill="#21272A"/>
<path d="M11.103 5.31019C9.5949 5.31252 8.14928 5.91271 7.08302 6.97918C6.01676 8.04565 5.41685 9.49138 5.41481 10.9994C5.41656 12.5079 6.01649 13.9541 7.08302 15.0208C8.14955 16.0876 9.59562 16.6878 11.1041 16.6898C12.6127 16.6881 14.0591 16.088 15.1258 15.0212C16.1926 13.9544 16.7927 12.5081 16.7944 10.9994C16.7921 9.491 16.1916 8.04505 15.1247 6.97873C14.0577 5.9124 12.6114 5.31275 11.103 5.3113V5.31019ZM11.103 14.4771C10.1809 14.4771 9.29663 14.1109 8.64465 13.4589C7.99266 12.8069 7.62638 11.9226 7.62638 11.0006C7.62638 10.0785 7.99266 9.19422 8.64465 8.54223C9.29663 7.89025 10.1809 7.52397 11.103 7.52397C12.025 7.52397 12.9093 7.89025 13.5613 8.54223C14.2133 9.19422 14.5795 10.0785 14.5795 11.0006C14.5795 11.9226 14.2133 12.8069 13.5613 13.4589C12.9093 14.1109 12.025 14.4771 11.103 14.4771Z" fill="#21272A"/>
<path d="M16.8043 6.71625C17.5572 6.71625 18.1674 6.10598 18.1674 5.35317C18.1674 4.60036 17.5572 3.99008 16.8043 3.99008C16.0515 3.99008 15.4413 4.60036 15.4413 5.35317C15.4413 6.10598 16.0515 6.71625 16.8043 6.71625Z" fill="#21272A"/>
</svg>
